<?xml version="1.0" encoding="UTF-8" standalone="no"?>
<!DOCTYPE svg PUBLIC "-//W3C//DTD SVG 1.1//EN" "http://www.w3.org/Graphics/SVG/1.1/DTD/svg11.dtd">
<svg width="100%" height="100%" viewBox="0 0 3413 835" version="1.1" xmlns="http://www.w3.org/2000/svg" xmlns:xlink="http://www.w3.org/1999/xlink" xml:space="preserve" style="fill-rule:evenodd;clip-rule:evenodd;stroke-linejoin:round;stroke-miterlimit:1.41421;">
    <g transform="matrix(1,0,0,1,-8736,-1440.45)">
        <g id="lowercase" transform="matrix(1.95029,0,0,0.66626,8736,489.31)">
            <rect x="0" y="1427.58" width="1750" height="1253.12" style="fill:none;"/>
            <clipPath id="_clip1">
                <rect x="0" y="1427.58" width="1750" height="1253.12"/>
            </clipPath>
            <g clip-path="url(#_clip1)">
                <g transform="matrix(0.512745,0,0,1.50092,-102.697,209.333)">
                    <path d="M406.189,1495.87L692.189,1165.87L692.189,1043.77L224.689,1043.77L224.689,1174.67L490.889,1174.67L200.489,1504.67L200.489,1627.87L681.189,1627.87L697.689,1495.87L406.189,1495.87Z" style="fill-rule:nonzero;"/>
                    <path d="M977.089,1043.77L803.289,1043.77L803.289,1465.07C803.289,1576.17 857.189,1646.57 970.489,1646.57C1040.89,1646.57 1110.19,1616.87 1149.79,1559.67L1157.49,1627.87L1309.29,1627.87L1309.29,1043.77L1135.49,1043.77L1135.49,1454.07C1111.29,1493.67 1071.69,1517.87 1036.49,1517.87C999.089,1517.87 977.089,1500.27 977.089,1443.07L977.089,1043.77Z" style="fill-rule:nonzero;"/>
                    <path d="M1712.99,811.67L1367.59,811.67L1367.59,930.47L1539.19,930.47L1539.19,1422.17C1539.19,1559.67 1602.99,1646.57 1743.79,1646.57C1818.59,1646.57 1873.59,1628.97 1912.09,1608.07L1871.39,1491.47C1847.19,1501.37 1818.59,1509.07 1787.79,1509.07C1741.59,1509.07 1712.99,1491.47 1712.99,1444.17L1712.99,811.67Z" style="fill-rule:nonzero;"/>
                    <path d="M2187.09,1043.77L2013.29,1043.77L2013.29,1465.07C2013.29,1576.17 2067.19,1646.57 2180.49,1646.57C2250.89,1646.57 2320.19,1616.87 2359.79,1559.67L2367.49,1627.87L2519.29,1627.87L2519.29,1043.77L2345.49,1043.77L2345.49,1454.07C2321.29,1493.67 2281.69,1517.87 2246.49,1517.87C2209.09,1517.87 2187.09,1500.27 2187.09,1443.07L2187.09,1043.77Z" style="fill-rule:nonzero;"/>
                    <path d="M3003.1,1334.22L2778.01,1627.87L2619.83,1627.87L2844.92,1334.22L2619.83,1040.99L2778.01,1040.99L3003.1,1334.22Z" style="fill:rgb(244,214,104);fill-rule:nonzero;"/>
                    <path d="M3306.57,1334.22L3081.49,1627.87L2923.31,1627.87L3148.39,1334.22L2923.31,1040.99L3081.49,1040.99L3306.57,1334.22Z" style="fill:rgb(228,134,97);fill-rule:nonzero;"/>
                    <path d="M3610.05,1334.22L3384.96,1627.87L3226.78,1627.87L3451.87,1334.22L3226.78,1040.99L3384.96,1040.99L3610.05,1334.22Z" style="fill:rgb(219,0,93);fill-rule:nonzero;"/>
                </g>
            </g>
        </g>
    </g>
</svg>
